<?xml version="1.0" standalone="no"?>
<!DOCTYPE svg PUBLIC "-//W3C//DTD SVG 20010904//EN"
 "http://www.w3.org/TR/2001/REC-SVG-20010904/DTD/svg10.dtd">
<svg version="1.0" xmlns="http://www.w3.org/2000/svg"
 width="1536.000000pt" height="1024.000000pt" viewBox="0 0 1536.000000 1024.000000"
 preserveAspectRatio="xMidYMid meet">

<g transform="translate(0.000000,1024.000000) scale(0.100000,-0.100000)"
fill="#000000" stroke="none">
<path d="M3228 6044 c-58 -18 -130 -94 -147 -156 -9 -30 -11 -129 -9 -333 3
-275 4 -292 25 -330 27 -51 57 -79 113 -104 40 -18 65 -21 236 -21 113 0 204
-5 223 -11 60 -21 64 -43 65 -339 1 -240 -1 -268 -17 -293 -10 -15 -29 -32
-43 -37 -14 -6 -107 -10 -207 -10 -153 0 -186 3 -206 16 -39 27 -51 74 -51
190 0 127 -13 176 -57 221 -56 56 -85 65 -217 70 -155 5 -163 7 -186 46 -18
28 -20 51 -20 202 0 150 2 174 19 201 23 38 71 56 138 52 l48 -3 3 68 3 67
-88 0 c-106 0 -153 -19 -205 -79 -54 -63 -60 -100 -56 -327 3 -224 11 -252 83
-312 51 -41 96 -52 223 -52 103 0 113 -2 139 -24 28 -24 28 -26 33 -163 7
-151 19 -191 77 -244 64 -60 81 -64 304 -67 129 -2 222 1 247 8 54 14 121 66
149 115 22 39 23 47 23 355 0 283 -2 319 -19 355 -23 51 -89 111 -138 124 -21
6 -122 11 -225 11 -103 0 -198 4 -212 10 -14 5 -35 24 -46 42 -18 31 -20 51
-20 281 0 357 -8 347 264 347 114 0 184 -4 201 -12 45 -20 55 -56 61 -211 5
-132 7 -145 32 -187 20 -33 42 -52 81 -72 50 -26 64 -28 169 -28 184 0 202
-16 209 -185 7 -161 -3 -250 -32 -283 -21 -25 -31 -27 -112 -32 l-88 -5 -3
-67 -3 -68 98 0 c112 0 157 16 210 71 58 62 63 86 63 318 0 208 0 209 -27 261
-17 31 -45 65 -71 84 -43 30 -47 31 -180 36 -85 3 -146 10 -160 19 -39 21 -52
69 -52 192 0 61 -5 129 -11 150 -17 55 -65 108 -123 135 -49 23 -61 24 -256
23 -148 0 -218 -4 -252 -15z"/>
<path d="M4967 5833 c-4 -3 -7 -228 -7 -500 l0 -493 248 0 c274 0 317 6 390
59 61 45 94 108 100 192 8 113 -40 204 -128 244 l-41 18 35 29 c52 42 76 101
76 184 0 85 -29 153 -88 206 -66 59 -112 68 -362 68 -119 0 -220 -3 -223 -7z
m440 -144 c129 -48 114 -231 -22 -268 -22 -6 -94 -11 -160 -11 l-120 0 0 145
0 145 137 0 c75 0 149 -5 165 -11z m60 -431 c51 -28 78 -75 78 -135 0 -60 -23
-99 -76 -125 -28 -15 -62 -18 -199 -18 l-165 0 3 151 3 151 162 -4 c130 -2
168 -7 194 -20z"/>
<path d="M8737 5833 c-4 -3 -7 -33 -7 -65 l0 -58 160 0 160 0 0 -435 0 -435
75 0 75 0 0 435 0 435 163 2 162 3 0 60 0 60 -391 3 c-215 1 -393 -1 -397 -5z"/>
<path d="M11520 5340 l0 -500 70 0 70 0 0 155 c0 85 3 155 8 155 4 0 13 -10
21 -22 8 -13 69 -83 135 -155 l121 -133 83 0 c45 0 82 3 82 6 0 8 -144 169
-234 262 l-61 62 133 133 c72 73 132 136 132 140 0 4 -38 7 -85 7 l-84 0 -125
-127 -125 -128 -1 323 0 322 -70 0 -70 0 0 -500z"/>
<path d="M5870 5800 c-30 -30 -27 -83 6 -109 36 -28 79 -27 109 4 52 52 20
125 -55 125 -27 0 -47 -7 -60 -20z"/>
<path d="M6313 5439 c-110 -42 -183 -149 -191 -279 -5 -96 21 -170 82 -234 65
-66 116 -89 212 -94 108 -6 167 14 238 79 75 68 101 129 101 239 0 73 -4 92
-27 136 -36 69 -117 140 -181 159 -71 21 -170 18 -234 -6z m222 -140 c53 -36
78 -96 73 -174 -5 -77 -25 -110 -88 -142 -53 -28 -101 -29 -156 -4 -58 26 -87
72 -92 143 -7 99 34 169 118 202 32 12 110 -1 145 -25z"/>
<path d="M7106 5446 c-21 -8 -51 -27 -67 -42 l-29 -28 0 37 0 37 -70 0 -70 0
0 -485 0 -486 68 3 67 3 3 203 c2 185 8 223 28 191 15 -25 90 -49 154 -49 114
0 213 66 261 175 27 58 32 183 11 252 -20 67 -72 133 -131 166 -63 36 -162 46
-225 23z m142 -143 c109 -71 108 -258 -3 -320 -78 -44 -180 -21 -217 48 -26
49 -25 159 3 217 39 80 139 105 217 55z"/>
<path d="M7695 5448 c-75 -26 -135 -103 -135 -173 0 -47 35 -112 72 -135 18
-11 71 -32 118 -46 95 -29 120 -46 120 -80 0 -62 -129 -74 -211 -20 l-43 29
-22 -28 c-61 -76 -57 -88 42 -136 131 -62 292 -31 350 67 23 39 26 53 22 109
-3 55 -8 69 -33 96 -39 40 -87 64 -170 85 -64 16 -105 41 -105 64 0 6 9 19 20
30 30 30 111 27 167 -6 25 -14 46 -24 47 -22 1 1 14 22 29 45 15 24 27 47 27
51 0 15 -72 60 -115 71 -50 13 -140 13 -180 -1z"/>
<path d="M9875 5448 c-11 -6 -35 -24 -52 -41 l-33 -31 0 37 0 37 -75 0 -75 0
0 -305 0 -305 75 0 75 0 0 188 c0 210 7 238 69 279 40 27 77 29 128 8 20 -8
37 -14 38 -13 8 9 55 109 55 117 0 32 -158 55 -205 29z"/>
<path d="M10319 5446 c-25 -6 -66 -24 -92 -39 l-47 -28 27 -54 c27 -54 40 -64
59 -45 17 17 126 50 166 50 68 0 107 -29 121 -91 l7 -26 -108 -5 c-174 -8
-256 -52 -283 -150 -34 -129 52 -228 198 -228 72 0 130 20 170 59 30 28 33 27
33 -14 l0 -35 65 0 65 0 0 213 c0 120 -5 229 -11 251 -15 54 -80 121 -136 140
-55 19 -169 20 -234 2z m241 -366 c0 -76 -67 -130 -160 -130 -62 0 -93 25 -88
72 6 56 67 85 186 87 l62 1 0 -30z"/>
<path d="M11050 5451 c-157 -48 -253 -209 -219 -369 16 -78 39 -120 94 -171
76 -70 170 -97 280 -79 59 9 149 54 183 91 15 17 13 21 -29 62 l-44 44 -43
-29 c-75 -51 -174 -52 -232 -3 -46 38 -63 80 -63 148 0 156 138 234 265 150
21 -14 43 -25 50 -25 7 0 33 18 58 40 l45 40 -39 35 c-54 49 -131 75 -214 74
-37 0 -78 -4 -92 -8z"/>
<path d="M12357 5446 c-88 -32 -163 -110 -187 -196 -5 -19 -10 -69 -10 -110 0
-165 106 -285 273 -309 109 -15 199 13 266 83 l35 36 -34 35 c-19 19 -40 35
-47 35 -7 0 -32 -12 -54 -27 -56 -37 -139 -43 -202 -15 -48 21 -72 49 -87 101
l-9 31 224 0 c182 0 224 3 228 14 12 30 -6 124 -35 184 -34 73 -83 114 -161
137 -62 18 -149 19 -200 1z m190 -131 c25 -17 47 -48 58 -82 l6 -23 -150 0
c-83 0 -151 3 -151 6 0 4 10 24 23 47 39 71 145 97 214 52z"/>
<path d="M13083 5441 c-23 -11 -47 -30 -54 -43 -13 -23 -14 -23 -19 12 l-5 35
-73 3 -72 3 2 -303 3 -303 73 -3 72 -3 0 192 c0 214 7 243 65 279 39 24 80 25
130 4 20 -8 39 -14 40 -12 6 6 45 109 45 119 0 17 -67 39 -117 39 -26 0 -67
-9 -90 -19z"/>
<path d="M5850 5145 l0 -305 70 0 70 0 0 305 0 305 -70 0 -70 0 0 -305z"/>
<path d="M8078 5445 c-5 -5 143 -330 220 -481 l31 -62 -33 -53 c-18 -30 -69
-112 -115 -183 -45 -70 -80 -134 -77 -142 3 -7 26 -23 52 -36 l47 -22 21 27
c12 14 67 101 124 191 77 123 137 240 238 457 73 161 134 296 134 301 0 4 -35
8 -78 8 l-78 0 -16 -42 c-9 -24 -46 -112 -81 -197 l-66 -155 -16 40 c-8 21
-46 109 -84 194 l-68 155 -75 3 c-40 1 -77 0 -80 -3z"/>
</g>
</svg>
